<?xml version="1.0" encoding="UTF-8" standalone="no"?>
<svg xmlns="http://www.w3.org/2000/svg" width="98" height="96" viewBox="0 0 98 96">
  <path fill="#000" d="M48.854 0C21.839 0 0 22 0 49.217c0 21.756 13.993 40.172 33.405 46.69 2.427.49 3.316-1.059 3.316-2.362 0-1.141-.08-5.052-.08-9.127-13.59 2.934-16.42-5.867-16.42-5.867-2.184-5.704-5.42-7.17-5.42-7.17-4.448-3.015.324-3.015.324-3.015 4.934.326 7.523 5.052 7.523 5.052 4.367 7.496 11.404 5.378 14.235 4.074.404-3.178 1.699-5.378 3.074-6.6-10.839-1.141-22.243-5.378-22.243-24.283 0-5.378 1.94-9.778 5.014-13.2-.485-1.222-2.184-6.275.486-13.038 0 0 4.125-1.304 13.426 5.052a46.97 46.97 0 0 1 12.214-1.63c4.125 0 8.33.571 12.213 1.63 9.302-6.356 13.427-5.052 13.427-5.052 2.67 6.763.97 11.816.485 13.038 3.155 3.422 5.015 7.822 5.015 13.2 0 18.905-11.404 23.06-22.324 24.283 1.78 1.548 3.316 4.481 3.316 9.126 0 6.6-.08 11.897-.08 13.526 0 1.304.89 2.853 3.316 2.364 19.412-6.52 33.405-24.935 33.405-46.691C97.707 22 75.788 0 48.854 0z"/>
  <path fill="#84B" d="M18.704 72.799c-.105.24-.485.312-.824.146-.34-.16-.532-.493-.422-.733.101-.251.48-.32.82-.152.34.16.535.499.425.739zm2.352 2.43c-.228.22-.674.118-.976-.231-.312-.348-.37-.812-.14-1.036.235-.216.664-.114.977.235.313.346.373.812.14 1.032zm1.629 2.77c-.293.212-.772.014-1.068-.427-.297-.442-.297-.972.005-1.183.3-.21.768-.022 1.068.414.297.443.297.974-.005 1.196zm2.805 3.065c-.263.301-.823.22-1.233-.19-.42-.403-.536-.976-.273-1.277.266-.303.825-.218 1.238.19.42.403.542.977.27 1.277zm3.615 1.107c-.116.39-.654.566-1.195.4-.543-.168-.896-.621-.787-1.017.112-.394.65-.577 1.198-.402.543.168.896.617.784 1.02zm3.991.31c.013.41-.445.75-1.013.758-.57.013-1.032-.318-1.039-.724 0-.413.448-.75 1.018-.76.57-.01 1.034.318 1.034.726zm3.891-.596c.066.4-.327.811-.891.92-.555.108-1.07-.142-1.138-.542-.067-.402.335-.818.89-.926.56-.104 1.072.144 1.139.548z"/>
</svg>
